<svg width="80" height="80" viewBox="0 0 80 80" fill="none" xmlns="http://www.w3.org/2000/svg">
<path d="M77.5 78.75H2.5C2.16848 78.75 1.85054 78.6183 1.61612 78.3839C1.3817 78.1495 1.25 77.8315 1.25 77.5V2.5C1.25 2.16848 1.3817 1.85054 1.61612 1.61612C1.85054 1.3817 2.16848 1.25 2.5 1.25H77.5C77.8315 1.25 78.1495 1.3817 78.3839 1.61612C78.6183 1.85054 78.75 2.16848 78.75 2.5V77.5C78.75 77.8315 78.6183 78.1495 78.3839 78.3839C78.1495 78.6183 77.8315 78.75 77.5 78.75ZM3.75 76.25H76.25V3.75H3.75V76.25Z" fill="black" fill-opacity="0.3"/>
<path d="M76.5625 63.325L57.5 41.825L40.8875 58.3875C40.7633 58.5124 40.6142 58.6097 40.4499 58.6729C40.2855 58.7362 40.1097 58.764 39.9338 58.7546C39.758 58.7451 39.5861 58.6986 39.4295 58.6181C39.2729 58.5377 39.135 58.425 39.0249 58.2875L20 34.5125L3.47495 55.7625L1.51245 54.2375L19.0125 31.7375C19.1289 31.5862 19.2784 31.4636 19.4496 31.3791C19.6208 31.2946 19.8091 31.2505 20 31.25C20.1877 31.2509 20.3729 31.294 20.5417 31.3762C20.7104 31.4585 20.8585 31.5777 20.975 31.725L40.1125 55.625L56.6125 39.1125C56.7293 38.9966 56.8678 38.905 57.0201 38.8428C57.1724 38.7806 57.3354 38.749 57.5 38.75C57.6702 38.7538 57.8378 38.7924 57.9925 38.8633C58.1473 38.9343 58.2859 39.0361 58.4 39.1625L78.4 61.6625L76.5625 63.325Z" fill="black" fill-opacity="0.3"/>
<path d="M50 36.25C47.775 36.25 45.5999 35.5902 43.7498 34.354C41.8998 33.1179 40.4578 31.3609 39.6064 29.3052C38.7549 27.2495 38.5321 24.9875 38.9662 22.8052C39.4003 20.623 40.4717 18.6184 42.0451 17.0451C43.6184 15.4717 45.623 14.4003 47.8052 13.9662C49.9875 13.5321 52.2495 13.7549 54.3052 14.6064C56.3609 15.4578 58.1179 16.8998 59.354 18.7498C60.5902 20.5999 61.25 22.775 61.25 25C61.25 27.9837 60.0647 30.8452 57.955 32.955C55.8452 35.0647 52.9837 36.25 50 36.25ZM50 16.25C48.2694 16.25 46.5777 16.7632 45.1388 17.7246C43.6998 18.6861 42.5783 20.0527 41.9161 21.6515C41.2538 23.2504 41.0805 25.0097 41.4181 26.707C41.7558 28.4044 42.5891 29.9635 43.8128 31.1872C45.0365 32.4109 46.5956 33.2443 48.293 33.5819C49.9903 33.9195 51.7496 33.7462 53.3485 33.084C54.9473 32.4217 56.3139 31.3002 57.2754 29.8612C58.2368 28.4223 58.75 26.7306 58.75 25C58.75 22.6794 57.8281 20.4538 56.1872 18.8128C54.5463 17.1719 52.3207 16.25 50 16.25Z" fill="black" fill-opacity="0.3"/>
</svg>
