<svg width="367" height="251" viewBox="0 0 367 251" fill="none" xmlns="http://www.w3.org/2000/svg">
<g clip-path="url(#clip0)">
<path d="M350.394 164.792C356.943 164.792 362.252 159.457 362.252 152.876C362.252 146.295 356.943 140.96 350.394 140.96C343.845 140.96 338.536 146.295 338.536 152.876C338.536 159.457 343.845 164.792 350.394 164.792Z" fill="#2F2E41"/>
<path d="M301.414 5.62677e-09H69.2285C68.3441 0.000808187 67.4962 0.354219 66.8708 0.982656C66.2455 1.61109 65.8938 2.4632 65.8931 3.35193V161.462C65.8938 162.35 66.2455 163.202 66.8708 163.831C67.4962 164.459 68.3441 164.813 69.2285 164.813H301.414C301.896 164.814 302.373 164.708 302.811 164.505C303.249 164.302 303.638 164.006 303.95 163.637C303.977 163.608 304.001 163.578 304.023 163.545C304.222 163.3 304.383 163.027 304.501 162.734C304.669 162.331 304.755 161.898 304.754 161.462V3.35194C304.753 2.46258 304.4 1.60998 303.774 0.981471C303.148 0.352959 302.299 -5.14607e-05 301.414 5.62677e-09ZM303.801 161.462C303.802 161.929 303.664 162.387 303.407 162.776C303.178 163.119 302.868 163.399 302.504 163.591C302.167 163.766 301.794 163.857 301.414 163.856H69.2285C68.5967 163.856 67.991 163.603 67.5443 163.154C67.0975 162.705 66.8462 162.096 66.8454 161.462V3.35194C66.8462 2.71704 67.0975 2.10837 67.5443 1.65942C67.991 1.21048 68.5967 0.957927 69.2285 0.957156H301.414C302.047 0.957075 302.653 1.20923 303.101 1.65825C303.548 2.10726 303.8 2.71642 303.801 3.35194V161.462Z" fill="#212121"/>
<path d="M304.275 13.4348H66.3682V14.393H304.275V13.4348Z" fill="#212121"/>
<path d="M74.4729 9.74936C76.0528 9.74936 77.3335 8.46232 77.3335 6.87468C77.3335 5.28704 76.0528 4 74.4729 4C72.893 4 71.6123 5.28704 71.6123 6.87468C71.6123 8.46232 72.893 9.74936 74.4729 9.74936Z" fill="#DE2B2B"/>
<path d="M82.6978 9.74936C84.2777 9.74936 85.5584 8.46232 85.5584 6.87468C85.5584 5.28704 84.2777 4 82.6978 4C81.1179 4 79.8372 5.28704 79.8372 6.87468C79.8372 8.46232 81.1179 9.74936 82.6978 9.74936Z" fill="#2B3DDE"/>
<path d="M90.9211 9.74936C92.501 9.74936 93.7817 8.46232 93.7817 6.87468C93.7817 5.28704 92.501 4 90.9211 4C89.3413 4 88.0605 5.28704 88.0605 6.87468C88.0605 8.46232 89.3413 9.74936 90.9211 9.74936Z" fill="#217E11"/>
<path d="M227.429 26H143.224C141.839 26.002 140.512 26.5557 139.532 27.5399C138.553 28.524 138.002 29.8583 138 31.2501V138.104C138.002 139.496 138.553 140.83 139.532 141.814C140.512 142.798 141.839 143.352 143.224 143.354H227.429C228.814 143.352 230.141 142.798 231.121 141.814C232.1 140.83 232.651 139.496 232.653 138.104V31.2501C232.651 29.8583 232.1 28.524 231.121 27.5399C230.141 26.5557 228.814 26.002 227.429 26ZM232.038 138.104C232.037 139.332 231.551 140.51 230.687 141.378C229.822 142.247 228.651 142.735 227.429 142.737H143.224C142.002 142.735 140.831 142.247 139.966 141.378C139.102 140.51 138.616 139.332 138.615 138.104V31.2501C138.616 30.0219 139.102 28.8445 139.966 27.9761C140.831 27.1077 142.002 26.6191 143.224 26.6177H227.429C228.651 26.6191 229.822 27.1077 230.687 27.9761C231.551 28.8445 232.037 30.0219 232.038 31.2501V138.104Z" fill="#212121"/>
<path d="M210.834 99.9647H159.819C154.608 99.9394 154.586 91.9625 159.82 91.9352H210.834C216.041 91.9597 216.069 99.9372 210.834 99.9647Z" fill="#E0435E"/>
<path d="M210.834 114.788H159.819C154.608 114.763 154.586 106.786 159.82 106.758H210.834C216.041 106.783 216.069 114.76 210.834 114.788Z" fill="#E0435E"/>
<path d="M210.834 129.611H159.819C154.608 129.586 154.586 121.609 159.82 121.582H210.834C216.041 121.606 216.069 129.584 210.834 129.611Z" fill="#E0435E"/>
<path d="M275.328 46.7574C273.285 46.7574 271.288 46.1487 269.59 45.0082C267.892 43.8678 266.568 42.2469 265.786 40.3504C265.004 38.454 264.8 36.3672 265.198 34.3539C265.597 32.3406 266.581 30.4913 268.025 29.0398C269.469 27.5884 271.31 26.5999 273.313 26.1994C275.316 25.799 277.393 26.0045 279.28 26.79C281.167 27.5756 282.78 28.9058 283.915 30.6126C285.05 32.3194 285.656 34.326 285.656 36.3787C285.653 39.1303 284.564 41.7684 282.627 43.7141C280.691 45.6598 278.066 46.7542 275.328 46.7574ZM275.328 26.7688C273.437 26.7688 271.588 27.3324 270.015 28.3884C268.442 29.4443 267.217 30.9452 266.493 32.7011C265.769 34.4571 265.58 36.3893 265.949 38.2535C266.318 40.1176 267.229 41.8299 268.566 43.1739C269.903 44.5179 271.607 45.4331 273.462 45.8039C275.317 46.1747 277.24 45.9844 278.987 45.2571C280.735 44.5297 282.228 43.298 283.279 41.7176C284.33 40.1373 284.891 38.2793 284.891 36.3787C284.888 33.8309 283.88 31.3882 282.087 29.5866C280.294 27.785 277.863 26.7717 275.328 26.7688Z" fill="#212121"/>
<path d="M279.918 35.9944H275.71V31.1894C275.71 31.0875 275.67 30.9897 275.598 30.9176C275.526 30.8456 275.429 30.8051 275.328 30.8051C275.226 30.8051 275.129 30.8456 275.057 30.9176C274.985 30.9897 274.945 31.0875 274.945 31.1894V35.9944H270.737C270.636 35.9944 270.539 36.0349 270.467 36.107C270.395 36.1791 270.355 36.2768 270.355 36.3788C270.355 36.4807 270.395 36.5785 270.467 36.6506C270.539 36.7227 270.636 36.7632 270.737 36.7632H274.945V41.5681C274.945 41.6701 274.985 41.7679 275.057 41.84C275.129 41.912 275.226 41.9525 275.328 41.9525C275.429 41.9525 275.526 41.912 275.598 41.84C275.67 41.7679 275.71 41.6701 275.71 41.5681V36.7632H279.918C280.019 36.7632 280.117 36.7227 280.188 36.6506C280.26 36.5785 280.3 36.4807 280.3 36.3788C280.3 36.2768 280.26 36.1791 280.188 36.107C280.117 36.0349 280.019 35.9944 279.918 35.9944Z" fill="#212121"/>
<path d="M275.358 137.32C273.315 137.32 271.318 136.712 269.62 135.571C267.922 134.431 266.598 132.81 265.816 130.914C265.034 129.017 264.83 126.93 265.228 124.917C265.627 122.904 266.611 121.054 268.055 119.603C269.499 118.151 271.34 117.163 273.343 116.763C275.346 116.362 277.423 116.568 279.31 117.353C281.197 118.139 282.81 119.469 283.945 121.176C285.08 122.882 285.686 124.889 285.686 126.942C285.683 129.693 284.594 132.332 282.657 134.277C280.721 136.223 278.096 137.317 275.358 137.32ZM275.358 117.332C273.467 117.332 271.618 117.896 270.045 118.951C268.472 120.007 267.247 121.508 266.523 123.264C265.799 125.02 265.61 126.952 265.979 128.817C266.348 130.681 267.259 132.393 268.596 133.737C269.933 135.081 271.637 135.996 273.492 136.367C275.347 136.738 277.27 136.548 279.017 135.82C280.765 135.093 282.258 133.861 283.309 132.281C284.36 130.7 284.921 128.842 284.921 126.942C284.918 124.394 283.909 121.951 282.117 120.15C280.324 118.348 277.893 117.335 275.358 117.332Z" fill="#212121"/>
<path d="M278.333 123.409L275.358 126.399L271.977 123.001C271.941 122.966 271.899 122.937 271.853 122.918C271.806 122.899 271.757 122.889 271.706 122.889C271.656 122.889 271.607 122.899 271.56 122.918C271.514 122.937 271.472 122.966 271.436 123.001C271.4 123.037 271.372 123.079 271.353 123.126C271.334 123.173 271.324 123.223 271.324 123.273C271.324 123.324 271.334 123.374 271.353 123.42C271.372 123.467 271.4 123.509 271.436 123.545L274.817 126.943L271.842 129.932C271.77 130.005 271.73 130.102 271.73 130.204C271.73 130.306 271.77 130.404 271.842 130.476C271.913 130.548 272.011 130.589 272.112 130.589C272.214 130.589 272.311 130.548 272.383 130.476L275.358 127.486L278.739 130.884C278.811 130.956 278.908 130.996 279.009 130.996C279.11 130.996 279.208 130.955 279.279 130.883C279.351 130.811 279.391 130.714 279.391 130.612C279.391 130.51 279.351 130.412 279.28 130.34L275.899 126.943L278.874 123.953C278.946 123.881 278.986 123.783 278.986 123.681C278.985 123.579 278.945 123.482 278.873 123.41C278.802 123.338 278.705 123.297 278.603 123.297C278.502 123.297 278.405 123.337 278.333 123.409Z" fill="#212121"/>
<path d="M209.911 82.2994H160.741C159.397 82.2979 158.108 81.7605 157.157 80.8052C156.207 79.85 155.672 78.5547 155.67 77.2038V49.533C155.672 48.182 156.207 46.8868 157.157 45.9315C158.108 44.9763 159.397 44.4389 160.741 44.4374H209.911C211.256 44.4389 212.545 44.9763 213.495 45.9315C214.446 46.8868 214.981 48.182 214.982 49.533V77.2038C214.981 78.5547 214.446 79.85 213.495 80.8052C212.545 81.7605 211.256 82.2979 209.911 82.2994Z" fill="#E0435E"/>
<path d="M259.886 41.0001L233 56.6871L233.384 57.3519L260.27 41.6649L259.886 41.0001Z" fill="#212121"/>
<path d="M234.384 107L234 107.665L260.886 123.352L261.27 122.687L234.384 107Z" fill="#212121"/>
<path d="M362.12 208.389H343.755C343.755 208.92 324.829 209.35 324.829 209.35C324.532 209.575 324.261 209.833 324.022 210.119C323.303 210.981 322.91 212.07 322.912 213.194V213.963C322.913 215.237 323.416 216.459 324.313 217.36C325.21 218.261 326.426 218.768 327.694 218.768H362.12C363.387 218.767 364.603 218.26 365.499 217.36C366.396 216.459 366.9 215.237 366.901 213.963V213.194C366.899 211.921 366.395 210.699 365.499 209.799C364.602 208.898 363.387 208.391 362.12 208.389Z" fill="#E6E6E6"/>
<path d="M347.583 218.577H342.611V250.866H347.583V218.577Z" fill="#E6E6E6"/>
<path d="M361.736 250.691C361.736 251.231 354.2 250.9 344.905 250.9C335.61 250.9 328.074 251.231 328.074 250.691C328.074 250.151 335.61 245.869 344.905 245.869C354.2 245.869 361.736 250.151 361.736 250.691Z" fill="#E6E6E6"/>
<path d="M320.038 246.444H315.348L313.117 228.266H320.038L320.038 246.444Z" fill="#FFB8B8"/>
<path d="M311.998 245.097H321.042V250.82H306.304C306.304 249.302 306.904 247.846 307.972 246.773C309.04 245.7 310.488 245.097 311.998 245.097Z" fill="#2F2E41"/>
<path d="M312.718 243.814L308.243 242.402L311.53 224.388L318.134 226.47L312.718 243.814Z" fill="#FFB8B8"/>
<path d="M305.448 240.11L314.077 242.831L312.372 248.291L298.31 243.857C298.534 243.14 298.896 242.474 299.376 241.898C299.856 241.321 300.444 240.846 301.107 240.498C301.77 240.15 302.494 239.937 303.239 239.87C303.984 239.804 304.735 239.885 305.448 240.11Z" fill="#2F2E41"/>
<path d="M349.56 205.238C349.452 204.322 349.257 203.419 348.979 202.54L348.103 201.433L345.823 198.557L345.724 198.561C345.555 198.569 344.855 198.607 343.773 198.692H343.761C343.092 198.746 342.273 198.815 341.344 198.903C341.099 198.93 340.843 198.953 340.579 198.98V202.993H345.36C345.593 202.994 345.817 203.079 345.991 203.233C346.166 203.387 346.279 203.6 346.309 203.831C346.313 203.874 346.316 203.912 346.316 203.954C346.316 204.209 346.216 204.454 346.036 204.634C345.857 204.814 345.614 204.915 345.36 204.915H317.59C317.236 205.151 316.896 205.408 316.572 205.684C315.594 206.445 314.889 207.506 314.564 208.706C312.942 215.871 309.985 229.232 309.113 233.157C309.05 233.453 309.064 233.76 309.155 234.048C309.245 234.337 309.409 234.596 309.629 234.802C309.792 234.955 309.983 235.074 310.192 235.152L313.642 236.451C313.784 236.504 313.932 236.539 314.082 236.555C314.101 236.555 314.116 236.559 314.136 236.559C314.171 236.562 314.207 236.563 314.243 236.563C314.591 236.561 314.932 236.454 315.219 236.255C315.506 236.056 315.727 235.775 315.853 235.448L318.576 228.267L322.773 217.197L324.433 212.819C326.357 213.272 342.499 216.862 347.904 211.077C348.437 210.507 348.858 209.841 349.143 209.113C349.598 207.876 349.741 206.545 349.56 205.238Z" fill="#2F2E41"/>
<path d="M354.243 206.284C354.159 205.942 354.063 205.589 353.952 205.231L350.796 201.249L350.697 201.253C350.498 201.264 349.553 201.314 348.103 201.433C346.459 201.572 344.16 201.795 341.578 202.144C341.501 202.152 341.421 202.164 341.344 202.175C341.092 202.21 340.836 202.244 340.579 202.283V202.994H345.361C345.593 202.994 345.818 203.079 345.992 203.233C346.167 203.388 346.279 203.6 346.309 203.832C346.313 203.874 346.317 203.913 346.317 203.955C346.317 204.21 346.216 204.454 346.037 204.634C345.858 204.814 345.614 204.916 345.361 204.916H328.461C327.723 205.158 327.012 205.412 326.331 205.685C322.758 207.107 320.084 208.971 319.537 211.397C319.354 212.212 319.151 213.107 318.937 214.061C318.141 217.605 317.173 221.945 316.297 225.888V225.892C316.118 226.707 315.938 227.499 315.766 228.268C315.035 231.574 314.415 234.376 314.086 235.848C314.079 235.89 314.071 235.929 314.063 235.971V235.979C314.025 236.277 314.062 236.579 314.171 236.859L314.174 236.863V236.867C314.28 237.135 314.451 237.371 314.672 237.555C314.819 237.677 314.986 237.775 315.165 237.843L318.615 239.142C318.808 239.215 319.011 239.252 319.216 239.254C319.503 239.255 319.786 239.182 320.038 239.042C320.4 238.846 320.679 238.525 320.826 238.139L328.255 218.55L329.406 215.51C331.33 215.963 347.472 219.55 352.877 213.768C353.945 212.607 354.554 211.094 354.591 209.513C354.629 208.426 354.511 207.338 354.243 206.284Z" fill="#2F2E41"/>
<path d="M353.818 172.373C353.757 172.3 353.692 172.227 353.623 172.157C352.604 171.081 351.346 170.263 349.952 169.769C348.558 169.275 347.067 169.12 345.601 169.317C344.323 169.485 343.057 169.736 341.811 170.066C340.201 170.482 338.727 171.313 337.534 172.477C336.605 173.382 335.874 174.471 335.386 175.675C334.898 176.88 334.664 178.173 334.7 179.473C334.715 179.999 334.719 180.537 334.711 181.083C334.711 181.337 334.707 181.594 334.704 181.852H338.475C338.639 181.851 338.802 181.871 338.961 181.91C339.421 182.02 339.831 182.283 340.125 182.656C340.418 183.029 340.578 183.491 340.579 183.966V201.848C340.835 201.921 341.092 201.994 341.344 202.071C341.424 202.098 341.501 202.121 341.577 202.144C341.665 202.171 341.753 202.198 341.838 202.225C342.614 202.467 343.373 202.723 344.113 202.994H345.361C345.593 202.994 345.817 203.079 345.992 203.233C346.166 203.387 346.279 203.6 346.309 203.832C346.569 203.935 346.822 204.039 347.07 204.143C347.954 204.512 348.792 204.881 349.561 205.239C350.597 205.715 351.519 206.169 352.292 206.565C352.535 206.689 352.803 206.755 353.076 206.757C353.434 206.756 353.782 206.64 354.07 206.426C354.13 206.382 354.188 206.335 354.242 206.284C354.447 206.091 354.602 205.851 354.693 205.584C354.785 205.318 354.81 205.033 354.767 204.754C354.372 201.735 354.256 198.685 354.422 195.644C354.529 193.088 354.759 190.466 355.057 187.933C355.218 186.561 355.398 185.215 355.585 183.92C355.765 182.682 355.956 181.494 356.144 180.372C356.39 178.949 356.308 177.488 355.905 176.101C355.501 174.714 354.788 173.439 353.818 172.373Z" fill="#E0435E"/>
<path d="M338.138 172.688C337.942 172.603 337.74 172.532 337.534 172.476C336.514 172.2 335.43 172.302 334.479 172.763C333.529 173.224 332.774 174.013 332.355 174.986L329.727 181.083L329.398 181.852H338.475C338.638 181.851 338.802 181.87 338.961 181.909L339.267 181.198L340.429 178.5C340.891 177.423 340.909 176.207 340.48 175.117C340.05 174.028 339.208 173.154 338.138 172.688Z" fill="#E0435E"/>
<path d="M346.3 166.315C351.488 166.315 355.695 162.088 355.695 156.874C355.695 151.66 351.488 147.433 346.3 147.433C341.111 147.433 336.905 151.66 336.905 156.874C336.905 162.088 341.111 166.315 346.3 166.315Z" fill="#FFB8B8"/>
<path d="M355.585 183.92L350.222 184.066L349.832 187.852L349.744 188.729L341.344 192.519L340.579 192.865V199.603L341.344 199.384L343.762 198.692H343.773L354.422 195.644L354.545 195.609C355.405 195.36 356.162 194.838 356.704 194.121C357.246 193.404 357.543 192.531 357.551 191.631L357.578 187.16L357.601 183.866L355.585 183.92Z" fill="#FFB8B8"/>
<path d="M357.329 176.431C357.257 175.261 356.726 174.167 355.852 173.39C354.978 172.613 353.833 172.217 352.668 172.289C351.503 172.361 350.415 172.895 349.642 173.773C348.869 174.652 348.475 175.803 348.546 176.973L349.131 186.568C349.147 186.82 349.218 187.066 349.339 187.288C349.46 187.51 349.628 187.702 349.832 187.852C350.155 188.094 350.554 188.212 350.956 188.186L355.057 187.932L356.3 187.855C356.526 187.844 356.748 187.787 356.952 187.687C357.156 187.587 357.337 187.447 357.486 187.275C357.519 187.238 357.549 187.2 357.577 187.16C357.821 186.833 357.94 186.429 357.914 186.022L357.329 176.431Z" fill="#E0435E"/>
<path d="M341.837 202.224H341.344V202.174C341.091 202.209 340.835 202.244 340.579 202.282V202.993H344.113C343.371 202.724 342.612 202.468 341.837 202.224ZM341.837 202.224H341.344V202.174C341.091 202.209 340.835 202.244 340.579 202.282V202.993H344.113C343.371 202.724 342.612 202.468 341.837 202.224ZM345.36 202.224H341.344V183.966C341.342 183.34 341.139 182.733 340.764 182.234C340.39 181.734 339.864 181.371 339.267 181.198C339.01 181.12 338.743 181.081 338.475 181.083H304.431C303.671 181.083 302.941 181.388 302.404 181.928C301.866 182.468 301.563 183.201 301.562 183.966V202.801C301.563 203.565 301.865 204.299 302.403 204.839C302.941 205.38 303.67 205.684 304.431 205.684H345.36C345.784 205.683 346.192 205.526 346.508 205.241C346.823 204.957 347.023 204.566 347.07 204.142C347.078 204.08 347.081 204.017 347.081 203.954C347.081 203.496 346.899 203.056 346.576 202.732C346.254 202.407 345.816 202.225 345.36 202.224ZM346.316 203.954C346.316 204.209 346.215 204.453 346.036 204.634C345.857 204.814 345.614 204.915 345.36 204.915H304.431C303.873 204.915 303.338 204.692 302.944 204.295C302.549 203.899 302.328 203.362 302.327 202.801V183.966C302.328 183.405 302.549 182.867 302.944 182.471C303.338 182.075 303.873 181.852 304.431 181.851H338.475C338.638 181.851 338.802 181.87 338.961 181.909C339.421 182.02 339.831 182.282 340.124 182.656C340.418 183.029 340.578 183.49 340.579 183.966V202.993H345.36C345.592 202.993 345.817 203.079 345.991 203.233C346.166 203.387 346.279 203.6 346.309 203.831C346.312 203.873 346.316 203.912 346.316 203.954ZM341.837 202.224H341.344V202.174C341.091 202.209 340.835 202.244 340.579 202.282V202.993H344.113C343.371 202.724 342.612 202.468 341.837 202.224Z" fill="#212121"/>
<path d="M321.452 195.691C322.72 195.691 323.747 194.658 323.747 193.384C323.747 192.11 322.72 191.078 321.452 191.078C320.185 191.078 319.157 192.11 319.157 193.384C319.157 194.658 320.185 195.691 321.452 195.691Z" fill="#E0435E"/>
<path d="M0 212.81V213.579C0.00110102 214.853 0.50521 216.074 1.40166 216.975C2.29811 217.876 3.51365 218.383 4.78142 218.384H39.2077C40.4756 218.383 41.6915 217.877 42.5881 216.976C43.4847 216.075 43.9886 214.853 43.9891 213.579V212.81C43.9915 211.686 43.5985 210.596 42.8797 209.735C42.6404 209.449 42.3697 209.191 42.0726 208.966C42.0726 208.966 23.1458 208.535 23.1458 208.005H4.78142C3.51385 208.007 2.2987 208.514 1.40239 209.414C0.506076 210.315 0.00175473 211.536 0 212.81Z" fill="#E6E6E6"/>
<path d="M19.3188 250.482H24.2915L24.2915 218.192H19.3188L19.3188 250.482Z" fill="#E6E6E6"/>
<path d="M5.16626 250.306C5.16626 250.846 12.7016 250.515 21.9969 250.515C31.2922 250.515 38.8275 250.846 38.8275 250.306C38.8275 249.767 31.2922 245.485 21.9969 245.485C12.7016 245.485 5.16626 249.767 5.16626 250.306Z" fill="#E6E6E6"/>
<path d="M47.0879 246.352L51.7775 246.352L54.0084 228.175L47.0872 228.175L47.0879 246.352Z" fill="#A0616A"/>
<path d="M60.8213 250.727L46.0828 250.728L46.0825 245.006L55.1266 245.005C55.8744 245.005 56.6149 245.153 57.3058 245.441C57.9967 245.728 58.6244 246.15 59.1532 246.681C59.682 247.212 60.1015 247.843 60.3877 248.537C60.6739 249.232 60.8213 249.976 60.8213 250.727L60.8213 250.727Z" fill="#2F2E41"/>
<path d="M54.4075 243.722L58.8817 242.311L55.5952 224.296L48.9915 226.379L54.4075 243.722Z" fill="#A0616A"/>
<path d="M68.8154 243.765L54.7531 248.199L53.0481 242.74L61.6772 240.018C63.1182 239.564 64.6798 239.703 66.0185 240.406C67.3571 241.108 68.3632 242.317 68.8154 243.765Z" fill="#2F2E41"/>
<path d="M58.0111 233.066C57.1428 229.142 54.182 215.78 52.5603 208.615C52.2502 207.46 51.5831 206.435 50.6554 205.686C50.3421 205.41 50.0125 205.153 49.6685 204.917H24.3077C24.0541 204.917 23.8109 204.816 23.6316 204.635C23.4523 204.455 23.3515 204.211 23.3514 203.956C23.3514 203.914 23.3554 203.875 23.3591 203.833C23.3892 203.601 23.502 203.389 23.6765 203.235C23.851 203.08 24.0754 202.995 24.3077 202.995H29.0891V199.178C28.8291 199.147 28.5766 199.116 28.3241 199.089C26.3236 198.851 24.6022 198.697 23.3707 198.601C22.2767 198.517 21.569 198.478 21.4008 198.471L21.3012 198.463L19.0214 201.342L18.1455 202.449C17.8667 203.327 17.672 204.229 17.5641 205.144C17.2925 207.558 17.8472 209.518 19.2204 210.987C24.6252 216.768 40.7674 213.181 42.6913 212.728L51.2712 235.357C51.3962 235.684 51.6171 235.966 51.9046 236.164C52.1921 236.362 52.5328 236.468 52.8816 236.468C52.9352 236.468 52.9886 236.464 53.0422 236.46C53.1925 236.446 53.3403 236.413 53.482 236.36L56.9323 235.061C57.3197 234.913 57.6415 234.63 57.8394 234.264C58.0373 233.899 58.0982 233.473 58.0111 233.066Z" fill="#2F2E41"/>
<path d="M53.0385 235.757C52.1702 231.832 49.2094 218.47 47.5876 211.305C47.0482 208.93 44.4777 207.096 41.0199 205.685C40.358 205.412 39.6619 205.159 38.9389 204.917H24.3077C24.0541 204.916 23.8109 204.815 23.6316 204.635C23.4523 204.455 23.3515 204.21 23.3514 203.956C23.3514 203.913 23.3554 203.875 23.3591 203.833C23.3892 203.601 23.502 203.388 23.6765 203.234C23.851 203.08 24.0754 202.995 24.3077 202.995H29.0891V202.587C28.5576 202.495 28.0258 202.41 27.5057 202.33C27.2685 202.295 27.0313 202.26 26.7941 202.226C26.3695 202.164 25.9526 202.107 25.5432 202.053C22.9613 201.703 20.6662 201.48 19.0214 201.342C17.5717 201.223 16.6268 201.173 16.4281 201.161L16.3285 201.153L13.1728 205.14C13.0619 205.497 12.9662 205.851 12.8822 206.193C12.1171 209.376 12.5761 211.886 14.2477 213.677C19.6526 219.458 35.7947 215.872 37.7187 215.418L46.2985 238.048C46.4621 238.473 46.7856 238.817 47.1993 239.005C47.613 239.192 48.0836 239.209 48.5094 239.051L51.9597 237.752C52.2348 237.647 52.4787 237.474 52.6682 237.247C52.8577 237.021 52.9865 236.75 53.0422 236.46C53.0925 236.228 53.0912 235.988 53.0385 235.757Z" fill="#2F2E41"/>
<path d="M48.2146 191.078C47.7724 191.078 47.3397 191.207 46.9686 191.448C46.5974 191.69 46.3035 192.034 46.1223 192.439L49.6032 191.547C49.2048 191.241 48.7163 191.076 48.2146 191.078Z" fill="#A0616A"/>
<path d="M32.429 179.131C32.4302 177.872 32.1796 176.626 31.692 175.466C31.2045 174.307 30.4899 173.258 29.5908 172.381C28.3994 171.219 26.9266 170.389 25.3182 169.975C24.0701 169.645 22.8028 169.393 21.5236 169.221C20.0581 169.027 18.5676 169.183 17.1736 169.677C15.7796 170.172 14.5216 170.99 13.5023 172.066C13.4335 172.135 13.3685 172.208 13.3073 172.281C12.3373 173.347 11.6233 174.623 11.2201 176.009C10.817 177.396 10.7353 178.857 10.9815 180.28C11.1691 181.403 11.3603 182.591 11.54 183.828C11.7275 185.124 11.9072 186.469 12.0678 187.842C12.3663 190.375 12.5958 192.996 12.7029 195.549C12.8707 198.591 12.7555 201.642 12.3586 204.663C12.3154 204.941 12.3406 205.226 12.4319 205.493C12.5233 205.76 12.678 206 12.8827 206.193C12.9375 206.243 12.9949 206.29 13.0548 206.335C13.3083 206.524 13.6099 206.637 13.9247 206.661C14.2395 206.684 14.5546 206.618 14.8334 206.469C15.6061 206.073 16.528 205.62 17.5646 205.143C19.129 204.424 20.9536 203.648 22.9198 202.933C23.5968 202.687 24.293 202.449 24.9969 202.226C25.1766 202.168 25.3602 202.11 25.5438 202.053C26.4581 201.772 27.3876 201.511 28.3247 201.288C28.5809 201.226 28.8334 201.168 29.0897 201.115V183.967C29.0906 183.491 29.2506 183.03 29.5441 182.657C29.8376 182.284 30.2475 182.021 30.7077 181.91C30.8668 181.872 31.0299 181.852 31.1935 181.853H32.4253C32.4177 181.595 32.4139 181.338 32.4139 181.084C32.4061 180.507 32.41 179.938 32.4253 179.381C32.429 179.296 32.429 179.212 32.429 179.131Z" fill="#E0435E"/>
<path d="M37.436 181.084L34.7698 174.896C34.3496 173.922 33.5955 173.133 32.6449 172.672C31.6943 172.21 30.6104 172.107 29.5906 172.382C29.3844 172.438 29.1825 172.508 28.9862 172.593C27.916 173.06 27.0739 173.935 26.6444 175.025C26.2149 176.115 26.2331 177.332 26.6951 178.409L28.5807 182.783L29.0895 183.967C29.0904 183.492 29.2504 183.03 29.5439 182.657C29.8374 182.284 30.2473 182.021 30.7075 181.911C30.8666 181.872 31.0297 181.853 31.1933 181.853H37.765L37.436 181.084Z" fill="#E0435E"/>
<path d="M20.8261 166.223C26.0148 166.223 30.221 161.996 30.221 156.782C30.221 151.568 26.0148 147.341 20.8261 147.341C15.6374 147.341 11.4312 151.568 11.4312 156.782C11.4312 161.996 15.6374 166.223 20.8261 166.223Z" fill="#A0616A"/>
<path d="M15.1473 165.17C15.0142 165.325 14.8517 165.451 14.6693 165.541C14.4869 165.631 14.2884 165.683 14.0854 165.695C13.8825 165.707 13.6793 165.678 13.4878 165.609C13.2964 165.54 13.1206 165.434 12.9707 165.296C10.8758 163.592 9.21435 161.411 8.12343 158.935C6.90204 156.009 6.72305 152.439 8.11311 149.696C9.28819 147.378 11.3976 145.903 13.5035 144.696C14.3108 144.185 15.1955 143.81 16.1229 143.584C16.5913 143.477 17.0768 143.47 17.5481 143.563C18.0194 143.656 18.4661 143.848 18.8594 144.125C19.2767 144.444 19.5996 144.871 19.7936 145.36C19.9875 145.85 20.0452 146.383 19.9602 146.903C20.9235 145.628 22.2221 144.648 23.7097 144.075C24.6224 143.68 25.6421 143.612 26.5991 143.88C27.9515 144.334 28.9525 145.706 29.5095 147.181C29.96 148.31 30.125 149.533 29.9898 150.742C29.9308 151.319 29.7556 151.878 29.4749 152.385C29.1942 152.892 28.8137 153.336 28.3568 153.691C27.2537 154.456 25.8325 154.378 24.5496 154.039C23.2667 153.701 22.0216 153.127 20.7163 152.967C19.411 152.807 17.9644 153.154 17.1867 154.324C16.6391 155.148 16.51 156.233 16.3982 157.268L15.8169 162.649C15.7759 163.418 15.6108 164.177 15.3282 164.893C15.2804 164.993 15.2196 165.086 15.1473 165.17Z" fill="#2F2E41"/>
<path d="M28.3247 193.574L17.381 188.638L17.293 187.762L16.9029 183.975L11.54 183.829L9.52417 183.775L9.54714 187.07L9.57385 191.54C9.58233 192.44 9.87954 193.312 10.4213 194.029C10.963 194.745 11.7203 195.266 12.5805 195.515L12.7029 195.549L23.3712 198.601L28.3247 200.02L29.0897 200.239V193.92L28.3247 193.574Z" fill="#A0616A"/>
<path d="M14.4576 172.201C13.8811 172.165 13.3032 172.243 12.7569 172.432C12.2107 172.62 11.7068 172.915 11.2741 173.3C10.8414 173.684 10.4883 174.151 10.2352 174.673C9.98201 175.194 9.83368 175.761 9.79865 176.34L9.20958 185.931C9.18556 186.338 9.30469 186.741 9.54615 187.069C9.57436 187.109 9.60505 187.148 9.63804 187.184C9.78214 187.348 9.95611 187.482 10.1505 187.58C10.3596 187.688 10.5889 187.751 10.8237 187.765L12.0669 187.842L16.1675 188.095C16.6232 188.122 17.0711 187.967 17.413 187.663C17.7549 187.359 17.9632 186.931 17.9921 186.473L18.5772 176.882C18.6478 175.713 18.2536 174.563 17.4812 173.685C16.7088 172.807 15.6213 172.273 14.4576 172.201Z" fill="#E0435E"/>
<path d="M353.471 164.126C352.67 164.559 351.672 164.986 350.91 164.463C350.165 163.953 350.112 162.817 350.369 161.934C350.626 161.051 351.108 160.226 351.153 159.301C351.217 157.976 350.337 156.747 349.244 156.059C348.151 155.371 346.87 155.119 345.62 154.879L338.764 153.565C337.066 153.24 335.229 152.833 334.097 151.46C332.458 149.474 333.169 146.161 335.11 144.553C337.051 142.944 339.786 142.764 342.229 143.304C343.581 143.603 344.899 144.1 346.271 144.245C348.98 144.532 351.844 143.454 354.357 144.574C356.545 145.549 357.87 148.025 358.18 150.486C358.489 152.947 357.949 155.421 357.346 157.809C356.987 159.23 356.592 160.672 355.8 161.88C355.009 163.089 353.743 164.044 352.336 164.063L353.471 164.126Z" fill="#2F2E41"/>
<path d="M359.349 153.342C363.574 153.342 366.999 149.9 366.999 145.654C366.999 141.408 363.574 137.966 359.349 137.966C355.124 137.966 351.698 141.408 351.698 145.654C351.698 149.9 355.124 153.342 359.349 153.342Z" fill="#2F2E41"/>
<path d="M28.3241 202.176V202.226H27.8307C27.7237 202.26 27.6127 202.295 27.5057 202.33C26.844 202.541 26.1937 202.763 25.5548 202.995H29.0892V202.283C28.8329 202.245 28.5766 202.21 28.3241 202.176ZM28.3241 202.176V202.226H27.8307C27.7237 202.26 27.6127 202.295 27.5057 202.33C26.844 202.541 26.1937 202.763 25.5548 202.995H29.0892V202.283C28.8329 202.245 28.5766 202.21 28.3241 202.176ZM28.3241 202.176V202.226H27.8307C27.7237 202.26 27.6127 202.295 27.5057 202.33C28.0259 202.41 28.5576 202.495 29.0892 202.587V202.283C28.8329 202.245 28.5766 202.21 28.3241 202.176ZM28.3241 201.288V202.226H27.8307C27.7237 202.26 27.6127 202.295 27.5057 202.33C26.844 202.541 26.1937 202.763 25.5548 202.995H29.0892V201.115C28.8329 201.169 28.5804 201.226 28.3241 201.288ZM28.3241 201.288V202.226H27.8307C27.7237 202.26 27.6127 202.295 27.5057 202.33C26.844 202.541 26.1937 202.763 25.5548 202.995H29.0892V201.115C28.8329 201.169 28.5804 201.226 28.3241 201.288ZM28.3241 201.288V202.226H27.8307C27.7237 202.26 27.6127 202.295 27.5057 202.33C26.844 202.541 26.1937 202.763 25.5548 202.995H29.0892V201.115C28.8329 201.169 28.5804 201.226 28.3241 201.288ZM65.2367 181.084H31.193C30.9248 181.083 30.658 181.122 30.4012 181.199C30.0022 181.316 29.6329 181.518 29.3186 181.791C29.0044 182.065 28.7526 182.403 28.5804 182.783C28.4111 183.155 28.3237 183.558 28.3241 183.967V202.226H24.3077C24.0817 202.226 23.8578 202.271 23.649 202.357C23.4401 202.444 23.2504 202.572 23.0905 202.732C22.9307 202.893 22.8039 203.084 22.7174 203.294C22.6309 203.503 22.5864 203.728 22.5864 203.956C22.5864 204.019 22.5902 204.081 22.598 204.144C22.6446 204.567 22.8446 204.958 23.16 205.243C23.4754 205.527 23.884 205.685 24.3077 205.685H65.2367C65.9975 205.685 66.727 205.381 67.265 204.841C67.8029 204.3 68.1053 203.567 68.1056 202.802V183.967C68.1046 183.203 67.8021 182.47 67.2643 181.929C66.7265 181.389 65.9973 181.085 65.2367 181.084ZM67.3405 202.802C67.3402 203.363 67.1184 203.901 66.724 204.297C66.3295 204.693 65.7946 204.916 65.2367 204.917H24.3077C24.0541 204.916 23.811 204.815 23.6317 204.635C23.4523 204.455 23.3516 204.21 23.3515 203.956C23.3515 203.913 23.3554 203.875 23.3591 203.833C23.3892 203.601 23.502 203.388 23.6765 203.234C23.851 203.08 24.0754 202.995 24.3077 202.995H29.0892V183.967C29.09 183.491 29.2501 183.03 29.5436 182.657C29.8371 182.284 30.2469 182.021 30.7072 181.91C30.8662 181.872 31.0293 181.852 31.193 181.853H65.2367C65.7946 181.853 66.3295 182.076 66.724 182.472C67.1184 182.869 67.3402 183.406 67.3405 183.967V202.802ZM28.3241 201.288V202.226H27.8307C27.7237 202.26 27.6127 202.295 27.5057 202.33C26.844 202.541 26.1937 202.763 25.5548 202.995H29.0892V201.115C28.8329 201.169 28.5804 201.226 28.3241 201.288ZM28.3241 201.288V202.226H27.8307C27.7237 202.26 27.6127 202.295 27.5057 202.33C26.844 202.541 26.1937 202.763 25.5548 202.995H29.0892V201.115C28.8329 201.169 28.5804 201.226 28.3241 201.288ZM28.3241 201.288V202.226H27.8307C27.7237 202.26 27.6127 202.295 27.5057 202.33C26.844 202.541 26.1937 202.763 25.5548 202.995H29.0892V201.115C28.8329 201.169 28.5804 201.226 28.3241 201.288ZM28.3241 202.176V202.226H27.8307C27.7237 202.26 27.6127 202.295 27.5057 202.33C26.844 202.541 26.1937 202.763 25.5548 202.995H29.0892V202.283C28.8329 202.245 28.5766 202.21 28.3241 202.176Z" fill="#212121"/>
<path d="M50.5096 193.385C50.5096 193.996 50.2678 194.583 49.8374 195.015C49.407 195.448 48.8232 195.691 48.2145 195.691C47.6058 195.691 47.0221 195.448 46.5916 195.015C46.1612 194.583 45.9194 193.996 45.9194 193.385C45.919 193.058 45.9882 192.736 46.1223 192.439C46.3035 192.034 46.5973 191.69 46.9685 191.448C47.3397 191.207 47.7724 191.078 48.2145 191.078C48.7163 191.076 49.2047 191.241 49.6032 191.547C49.8851 191.762 50.1135 192.04 50.2708 192.359C50.428 192.678 50.5098 193.029 50.5096 193.385Z" fill="#E0435E"/>
</g>
<defs>
<clipPath id="clip0">
<rect width="367" height="251" fill="white"/>
</clipPath>
</defs>
</svg>
