<svg width="17" height="17" viewBox="0 0 17 17" fill="none" xmlns="http://www.w3.org/2000/svg">
<path d="M8.49998 15.2575C8.28986 15.258 8.08172 15.217 7.88752 15.1367C7.69332 15.0565 7.5169 14.9387 7.36842 14.79L1.89654 9.31813C1.46429 8.88117 1.1233 8.36256 0.893462 7.79252C0.66362 7.22248 0.549515 6.61239 0.557793 5.99781C0.561958 5.4346 0.677196 4.87775 0.896907 4.35914C1.11662 3.84054 1.43648 3.37038 1.83818 2.97559C2.23988 2.58079 2.71553 2.26913 3.23786 2.05845C3.7602 1.84777 4.31897 1.74221 4.88217 1.74781C5.45545 1.74204 6.02405 1.85145 6.55425 2.06955C7.08445 2.28765 7.56545 2.61001 7.96873 3.0175L8.49998 3.54875L8.93561 3.11313C9.68781 2.34099 10.6944 1.86762 11.7688 1.78068C12.8433 1.69375 13.9128 1.99915 14.7794 2.64031C15.2726 3.02018 15.6793 3.50079 15.9723 4.05012C16.2653 4.59946 16.4379 5.20492 16.4787 5.82618C16.5194 6.44744 16.4273 7.07024 16.2084 7.65312C15.9896 8.236 15.6491 8.76557 15.2097 9.20656L9.63154 14.79C9.48306 14.9387 9.30664 15.0565 9.11244 15.1367C8.91825 15.217 8.7101 15.258 8.49998 15.2575ZM4.86092 2.805C4.01651 2.80414 3.20489 3.13184 2.59779 3.71875C2.28829 4.01654 2.04215 4.37381 1.87418 4.7691C1.7062 5.1644 1.61984 5.58956 1.62029 6.01906C1.61564 6.49151 1.70481 6.96018 1.88263 7.39791C2.06046 7.83564 2.32341 8.23372 2.65623 8.56906L8.12811 14.0409C8.17749 14.0907 8.23625 14.1303 8.30099 14.1572C8.36573 14.1842 8.43516 14.1981 8.50529 14.1981C8.57543 14.1981 8.64486 14.1842 8.7096 14.1572C8.77434 14.1303 8.83309 14.0907 8.88248 14.0409L14.4659 8.45219C14.7937 8.11752 15.0469 7.7173 15.2089 7.27781C15.371 6.83832 15.4382 6.36951 15.4062 5.90219C15.3779 5.43007 15.2478 4.96966 15.025 4.55247C14.8022 4.13527 14.4919 3.77114 14.1153 3.485C13.4545 2.99779 12.6391 2.76742 11.821 2.83681C11.003 2.90621 10.238 3.27063 9.66873 3.86219L8.87717 4.675C8.82778 4.72479 8.76902 4.76432 8.70429 4.79129C8.63955 4.81826 8.57011 4.83214 8.49998 4.83214C8.42985 4.83214 8.36041 4.81826 8.29567 4.79129C8.23094 4.76432 8.17218 4.72479 8.12279 4.675L7.21967 3.77188C6.59763 3.15524 5.75805 2.80796 4.88217 2.805H4.86092Z" fill="#F51414" fill-opacity="0.95"/>
</svg>
