<svg width="33" height="33" viewBox="0 0 33 33" fill="none" xmlns="http://www.w3.org/2000/svg">
<g filter="url(#filter0_d)">
<path d="M20.3977 17.5902L19.2889 18.2414L20.5464 18.5103C22.9368 19.0215 24.941 19.9696 26.3373 21.1832C27.7308 22.3944 28.5 23.8494 28.5 25.4045C28.5 25.8466 28.2008 26.2943 27.4485 26.7313C26.7066 27.1624 25.6393 27.5097 24.3863 27.7776C21.8892 28.3116 18.8027 28.5 16.5 28.5C14.1973 28.5 11.1108 28.3116 8.61367 27.7776C7.36071 27.5097 6.2934 27.1624 5.55147 26.7313C4.79919 26.2943 4.5 25.8466 4.5 25.4045C4.5 23.8494 5.26917 22.3944 6.66268 21.1832C8.05895 19.9696 10.0632 19.0215 12.4536 18.5103L13.7111 18.2414L12.6023 17.5902C10.4681 16.3368 9.05388 14.1063 9.05388 11.575C9.05388 7.69655 12.3721 4.5 16.5 4.5C20.6279 4.5 23.9461 7.69655 23.9461 11.575C23.9461 14.1063 22.5319 16.3368 20.3977 17.5902ZM4.65034 25.3975L4.65024 25.4666L4.66888 25.5331C4.70911 25.6767 4.79007 25.7901 4.86149 25.8711C4.93637 25.9561 5.02613 26.0338 5.12092 26.1046C5.31044 26.2462 5.55882 26.3888 5.85107 26.529C6.43829 26.8108 7.25608 27.1083 8.26573 27.3799C10.288 27.9239 13.1204 28.375 16.5 28.375C19.8817 28.375 22.7154 27.9238 24.7377 27.3797C25.7474 27.108 26.565 26.8105 27.1517 26.5287C27.4437 26.3885 27.6919 26.2458 27.8811 26.1041C27.9758 26.0332 28.0655 25.9553 28.1402 25.8701C28.2115 25.7888 28.2924 25.6747 28.3319 25.5301L28.3498 25.4649L28.3496 25.3974C28.3462 23.4116 26.819 21.5972 24.6743 20.3113C22.5041 19.0101 19.5785 18.1667 16.5 18.1667C13.4213 18.1667 10.4954 19.01 8.32512 20.3111C6.18039 21.5969 4.65326 23.4114 4.65034 25.3975ZM16.5 4.62499C14.6132 4.62499 12.7922 5.47216 11.4472 6.74339C10.1033 8.01361 9.1902 9.75043 9.1902 11.575C9.1902 13.4071 10.1105 15.0396 11.465 16.2018C12.8188 17.3634 14.6355 18.0833 16.5 18.0833C18.3645 18.0833 20.1812 17.3634 21.5349 16.2018C22.8895 15.0396 23.8098 13.4071 23.8098 11.575C23.8098 9.75043 22.8967 8.01361 21.5528 6.74339C20.2078 5.47216 18.3868 4.62499 16.5 4.62499Z" fill="black" stroke="black"/>
</g>
<defs>
<filter id="filter0_d" x="0" y="0" width="33" height="33" filterUnits="userSpaceOnUse" color-interpolation-filters="sRGB">
<feFlood flood-opacity="0" result="BackgroundImageFix"/>
<feColorMatrix in="SourceAlpha" type="matrix" values="0 0 0 0 0 0 0 0 0 0 0 0 0 0 0 0 0 0 127 0"/>
<feOffset/>
<feGaussianBlur stdDeviation="2"/>
<feColorMatrix type="matrix" values="0 0 0 0 0 0 0 0 0 0 0 0 0 0 0 0 0 0 0.25 0"/>
<feBlend mode="normal" in2="BackgroundImageFix" result="effect1_dropShadow"/>
<feBlend mode="normal" in="SourceGraphic" in2="effect1_dropShadow" result="shape"/>
</filter>
</defs>
</svg>
