<svg width="28" height="28" viewBox="0 0 28 28" fill="none" xmlns="http://www.w3.org/2000/svg">
<path d="M28 14C28 21.732 21.732 28 14 28C6.26801 28 0 21.732 0 14C0 6.26801 6.26801 0 14 0C21.732 0 28 6.26801 28 14Z" fill="white"/>
<g clip-path="url(#clip0)">
<path d="M17.4 20.8L9.4 14.8C9.2758 14.7069 9.175 14.5861 9.10557 14.4472C9.03614 14.3084 9 14.1553 9 14C9 13.8448 9.03614 13.6917 9.10557 13.5528C9.175 13.4139 9.2758 13.2932 9.4 13.2L17.4 7.20001L18.6 8.80001L11.67 14L18.6 19.2L17.4 20.8Z" fill="#E0435E"/>
</g>
<defs>
<clipPath id="clip0">
<rect width="28" height="28" fill="white"/>
</clipPath>
</defs>
</svg>
