<svg width="16" height="16" viewBox="0 0 16 16" fill="none" xmlns="http://www.w3.org/2000/svg">
<path d="M8 0C3.5 0 0 3.6129 0 8.25806C0 13.6774 4.75 16 5.5 16C6 16 6 15.7419 6 15.4839V14.1935C4.25 14.7097 3.5 13.6774 3.25 12.9032C3.25 12.9032 3.25 12.6452 2.75 12.129C2.5 11.871 1.5 11.3548 2.5 11.3548C3.25 11.3548 3.75 12.3871 3.75 12.3871C4.5 13.4194 5.5 13.1613 6 12.9032C6 12.3871 6.5 11.871 6.5 11.871C4.5 11.6129 3 10.8387 3 8C3 6.96774 3.25 6.19355 3.75 5.67742C3.75 5.67742 3.25 4.64516 3.75 3.35484C3.75 3.35484 5 3.35484 6 4.3871C6.75 3.87097 9.25 3.87097 10 4.3871C11 3.35484 12.25 3.35484 12.25 3.35484C12.75 5.16129 12.25 5.67742 12.25 5.67742C12.75 6.19355 13 6.96774 13 8C13 10.8387 11.25 11.6129 9.5 11.871C9.75 12.129 10 12.6452 10 13.4194V15.4839C10 15.7419 10 16 10.5 16C11.25 16 16 13.6774 16 8.25806C16 3.6129 12.5 0 8 0Z" fill="#A8A8A8"/>
</svg>
