<svg width="25" height="26" viewBox="0 0 25 26" fill="none" xmlns="http://www.w3.org/2000/svg">
<path d="M13.5072 12.4843C13.5072 12.1054 13.2032 11.7983 12.8281 11.7983C12.4531 11.7983 12.149 12.1054 12.149 12.4843C12.149 12.8631 12.4531 13.1703 12.8281 13.1703C13.2032 13.1703 13.5072 12.8631 13.5072 12.4843Z" fill="#F8F8F8"/>
<path d="M14.1863 12.4843C14.1863 12.7557 14.1067 13.0209 13.9574 13.2466C13.8082 13.4722 13.5961 13.648 13.3479 13.7519C13.0997 13.8557 12.8266 13.8829 12.5632 13.83C12.2997 13.777 12.0577 13.6463 11.8678 13.4545C11.6778 13.2626 11.5485 13.0181 11.4961 12.752C11.4437 12.4858 11.4706 12.2099 11.5734 11.9592C11.6762 11.7085 11.8502 11.4942 12.0736 11.3435C12.2969 11.1927 12.5595 11.1123 12.8281 11.1123C13.1884 11.1123 13.5338 11.2568 13.7885 11.5141C14.0432 11.7714 14.1863 12.1204 14.1863 12.4843Z" fill="#F8F8F8"/>
<path d="M6.03725 12.4843C6.03725 12.1054 5.73321 11.7983 5.35816 11.7983C4.98311 11.7983 4.67908 12.1054 4.67908 12.4843C4.67908 12.8631 4.98311 13.1703 5.35816 13.1703C5.73321 13.1703 6.03725 12.8631 6.03725 12.4843Z" fill="#F8F8F8"/>
<path d="M6.71635 12.4843C6.71635 12.7557 6.63669 13.0209 6.48745 13.2466C6.33822 13.4722 6.1261 13.648 5.87792 13.7519C5.62975 13.8557 5.35667 13.8829 5.09321 13.83C4.82975 13.777 4.58774 13.6463 4.3978 13.4545C4.20786 13.2626 4.0785 13.0181 4.0261 12.752C3.97369 12.4858 4.00059 12.2099 4.10339 11.9592C4.20618 11.7085 4.38026 11.4942 4.60361 11.3435C4.82696 11.1927 5.08955 11.1123 5.35817 11.1123C5.71838 11.1123 6.06384 11.2568 6.31855 11.5141C6.57325 11.7714 6.71635 12.1204 6.71635 12.4843Z" fill="#F8F8F8"/>
<path d="M20.9772 12.4843C20.9772 12.1054 20.6732 11.7983 20.2981 11.7983C19.9231 11.7983 19.619 12.1054 19.619 12.4843C19.619 12.8631 19.9231 13.1703 20.2981 13.1703C20.6732 13.1703 20.9772 12.8631 20.9772 12.4843Z" fill="#F8F8F8"/>
<path d="M21.6562 12.4843C21.6562 12.7557 21.5766 13.0209 21.4273 13.2466C21.2781 13.4722 21.066 13.648 20.8178 13.7519C20.5696 13.8557 20.2965 13.8829 20.0331 13.83C19.7696 13.777 19.5276 13.6463 19.3377 13.4545C19.1477 13.2626 19.0184 13.0181 18.966 12.752C18.9136 12.4858 18.9405 12.2099 19.0433 11.9592C19.1461 11.7085 19.3201 11.4942 19.5435 11.3435C19.7668 11.1927 20.0294 11.1123 20.2981 11.1123C20.6583 11.1123 21.0037 11.2568 21.2584 11.5141C21.5131 11.7714 21.6562 12.1204 21.6562 12.4843Z" fill="#F8F8F8"/>
</svg>
