<svg width="109" height="52" viewBox="0 0 109 52" fill="none" xmlns="http://www.w3.org/2000/svg">
<g clip-path="url(#clip0)">
<path d="M69.239 26.2316C69.2414 25.6136 69.4271 25.0101 69.7725 24.4975C70.1179 23.985 70.6075 23.5864 71.1794 23.3521C71.7514 23.1178 72.38 23.0584 72.9857 23.1814C73.5914 23.3043 74.147 23.6042 74.5823 24.0429C75.0177 24.4817 75.3131 25.0397 75.4313 25.6463C75.5495 26.253 75.4851 26.8811 75.2464 27.4511C75.0076 28.0212 74.6051 28.5077 74.0899 28.8491C73.5746 29.1904 72.9697 29.3713 72.3517 29.3689C71.5229 29.3656 70.7293 29.0333 70.1456 28.4449C69.5618 27.8566 69.2357 27.0604 69.239 26.2316Z" fill="#101820"/>
<path d="M86.3498 26.3768C86.3523 25.7587 86.5379 25.1552 86.8833 24.6427C87.2287 24.1301 87.7183 23.7315 88.2903 23.4972C88.8622 23.263 89.4908 23.2036 90.0965 23.3265C90.7022 23.4495 91.2579 23.7493 91.6932 24.1881C92.1285 24.6268 92.4239 25.1848 92.5421 25.7915C92.6603 26.3981 92.596 27.0262 92.3572 27.5963C92.1184 28.1664 91.716 28.6528 91.2007 28.9942C90.6855 29.3356 90.0806 29.5165 89.4625 29.514C88.6337 29.5108 87.8402 29.1784 87.2564 28.5901C86.6727 28.0017 86.3466 27.2056 86.3498 26.3768Z" fill="#101820"/>
<path d="M52.3872 26.2601C52.3896 25.642 52.5753 25.0385 52.9207 24.526C53.2661 24.0134 53.7557 23.6148 54.3276 23.3806C54.8996 23.1463 55.5281 23.0869 56.1339 23.2098C56.7396 23.3328 57.2952 23.6326 57.7305 24.0714C58.1658 24.5101 58.4613 25.0681 58.5795 25.6748C58.6977 26.2814 58.6333 26.9095 58.3945 27.4796C58.1558 28.0497 57.7533 28.5362 57.2381 28.8775C56.7228 29.2189 56.1179 29.3998 55.4999 29.3973C54.6711 29.3941 53.8775 29.0617 53.2938 28.4734C52.71 27.885 52.3839 27.0889 52.3872 26.2601Z" fill="#101820"/>
<path d="M35.1997 26.1924C35.2021 25.5744 35.3878 24.9709 35.7332 24.4584C36.0786 23.9458 36.5682 23.5472 37.1401 23.3129C37.7121 23.0786 38.3406 23.0192 38.9464 23.1422C39.5521 23.2652 40.1077 23.565 40.543 24.0037C40.9783 24.4425 41.2738 25.0005 41.392 25.6071C41.5102 26.2138 41.4458 26.8419 41.207 27.412C40.9683 27.982 40.5658 28.4685 40.0506 28.8099C39.5353 29.1512 38.9304 29.3321 38.3124 29.3297C37.4836 29.3264 36.69 28.9941 36.1063 28.4057C35.5225 27.8174 35.1964 27.0212 35.1997 26.1924Z" fill="#101820"/>
<path d="M18.0124 26.1249C18.0148 25.5069 18.2005 24.9034 18.5459 24.3909C18.8913 23.8783 19.3809 23.4797 19.9529 23.2454C20.5248 23.0111 21.1534 22.9517 21.7591 23.0747C22.3648 23.1977 22.9205 23.4975 23.3558 23.9362C23.7911 24.375 24.0865 24.933 24.2047 25.5396C24.3229 26.1463 24.2586 26.7744 24.0198 27.3445C23.781 27.9145 23.3786 28.401 22.8633 28.7424C22.3481 29.0837 21.7432 29.2646 21.1251 29.2622C20.2963 29.2589 19.5027 28.9266 18.919 28.3382C18.3353 27.7499 18.0092 26.9537 18.0124 26.1249Z" fill="#6F6F6F"/>
</g>
<defs>
<clipPath id="clip0">
<rect width="50" height="107.637" fill="white" transform="translate(108.495 1.07666) rotate(90.2253)"/>
</clipPath>
</defs>
</svg>
