<svg width="74" height="74" viewBox="0 0 74 74" fill="none" xmlns="http://www.w3.org/2000/svg">
<g clip-path="url(#clip0)">
<path d="M38.4895 38.4895L68.9838 38.4895C69.8172 38.4895 70.4922 37.8144 70.4922 36.981C70.4922 36.1476 69.8172 35.4726 68.9838 35.4726L38.4895 35.4726L38.4895 4.97824C38.4895 4.14484 37.8144 3.46978 36.981 3.46978C36.1476 3.46978 35.4725 4.14484 35.4725 4.97824L35.4725 35.4726L4.97822 35.4726C4.14481 35.4726 3.46975 36.1476 3.46975 36.981C3.46975 37.3977 3.63782 37.7741 3.91146 38.0478C4.18509 38.3214 4.56151 38.4895 4.97822 38.4895L35.4725 38.4895L35.4725 68.9838C35.4725 69.4005 35.6406 69.7769 35.9142 70.0505C36.1879 70.3242 36.5643 70.4923 36.981 70.4922C37.8144 70.4922 38.4895 69.8172 38.4895 68.9838L38.4895 38.4895Z" fill="#1D1D1B"/>
</g>
<defs>
<clipPath id="clip0">
<rect width="52.299" height="52.299" fill="white" transform="translate(36.981) rotate(45)"/>
</clipPath>
</defs>
</svg>
