<svg width="20" height="20" viewBox="0 0 20 20" fill="none" xmlns="http://www.w3.org/2000/svg">
<path d="M12.1687 19.375C11.9364 19.3772 11.7081 19.3146 11.5094 19.1943C11.3107 19.074 11.1494 18.9006 11.0437 18.6938L8.54375 13.9625C8.47124 13.8163 8.45881 13.6475 8.50912 13.4922C8.55944 13.3369 8.6685 13.2075 8.81299 13.1316C8.95748 13.0557 9.12593 13.0393 9.28235 13.0859C9.43876 13.1326 9.57071 13.2386 9.65 13.3813L12.15 18.1125L18.125 1.91252L1.875 7.80627L8 11.0938L13.2 5.89377C13.3177 5.77608 13.4773 5.70996 13.6437 5.70996C13.8102 5.70996 13.9698 5.77608 14.0875 5.89377C14.2052 6.01146 14.2713 6.17108 14.2713 6.33752C14.2713 6.50396 14.2052 6.66358 14.0875 6.78127L8.55625 12.3063C8.46221 12.4004 8.34058 12.4621 8.20906 12.4823C8.07753 12.5026 7.94299 12.4803 7.825 12.4188L1.30625 8.95627C1.07808 8.84948 0.887495 8.67624 0.759491 8.45925C0.631487 8.24227 0.572034 7.99167 0.588927 7.74031C0.605819 7.48895 0.698269 7.24856 0.854155 7.05066C1.01004 6.85275 1.22209 6.70657 1.4625 6.63127L17.6562 0.706269C17.8853 0.60967 18.138 0.58356 18.3819 0.631277C18.6259 0.678994 18.8501 0.79837 19.0259 0.974149C19.2016 1.14993 19.321 1.37413 19.3687 1.61809C19.4165 1.86206 19.3903 2.11472 19.2937 2.34377L13.3687 18.5375C13.2873 18.7717 13.138 18.9764 12.9399 19.1255C12.7418 19.2747 12.5038 19.3615 12.2562 19.375H12.1687Z" fill="#DADADA"/>
</svg>
