<svg width="51" height="51" viewBox="0 0 51 51" fill="none" xmlns="http://www.w3.org/2000/svg">
<path d="M23.6457 25.0963C23.6423 25.9592 24.3391 26.6615 25.2021 26.6649C26.065 26.6683 26.7673 25.9715 26.7707 25.1086C26.7741 24.2457 26.0773 23.5434 25.2144 23.54C24.3514 23.5366 23.6491 24.2334 23.6457 25.0963Z" fill="#101820"/>
<path d="M22.0832 25.0902C22.0857 24.4721 22.2713 23.8686 22.6167 23.3561C22.9621 22.8436 23.4517 22.4449 24.0237 22.2107C24.5956 21.9764 25.2242 21.917 25.8299 22.0399C26.4356 22.1629 26.9913 22.4627 27.4266 22.9015C27.8619 23.3402 28.1573 23.8982 28.2755 24.5049C28.3937 25.1115 28.3294 25.7396 28.0906 26.3097C27.8518 26.8798 27.4494 27.3663 26.9341 27.7076C26.4189 28.049 25.814 28.2299 25.1959 28.2274C24.3671 28.2242 23.5736 27.8918 22.9898 27.3035C22.4061 26.7151 22.08 25.919 22.0832 25.0902Z" fill="#6F6F6F"/>
<path d="M40.8332 25.1639C40.8298 26.0268 41.5266 26.7291 42.3896 26.7325C43.2525 26.7359 43.9548 26.0391 43.9582 25.1762C43.9616 24.3133 43.2648 23.611 42.4019 23.6076C41.5389 23.6042 40.8366 24.301 40.8332 25.1639Z" fill="#101820"/>
<path d="M39.2707 25.1578C39.2731 24.5397 39.4588 23.9362 39.8042 23.4237C40.1496 22.9111 40.6392 22.5125 41.2112 22.2783C41.7831 22.044 42.4117 21.9846 43.0174 22.1075C43.6231 22.2305 44.1788 22.5303 44.6141 22.9691C45.0494 23.4078 45.3448 23.9658 45.463 24.5725C45.5812 25.1791 45.5169 25.8072 45.2781 26.3773C45.0393 26.9474 44.6369 27.4339 44.1216 27.7752C43.6064 28.1166 43.0015 28.2975 42.3834 28.295C41.5546 28.2918 40.7611 27.9594 40.1773 27.3711C39.5936 26.7827 39.2675 25.9866 39.2707 25.1578Z" fill="#6F6F6F"/>
<path d="M6.45848 25.0287C6.45508 25.8917 7.15188 26.594 8.01482 26.5973C8.87776 26.6007 9.58006 25.9039 9.58345 25.041C9.58685 24.1781 8.89005 23.4758 8.02711 23.4724C7.16417 23.469 6.46187 24.1658 6.45848 25.0287Z" fill="#101820"/>
<path d="M4.89596 25.0226C4.89839 24.4045 5.08404 23.8011 5.42944 23.2885C5.77484 22.776 6.26447 22.3773 6.83641 22.1431C7.40836 21.9088 8.03693 21.8494 8.64264 21.9723C9.24835 22.0953 9.804 22.3951 10.2393 22.8339C10.6746 23.2726 10.9701 23.8306 11.0883 24.4373C11.2065 25.0439 11.1421 25.672 10.9033 26.2421C10.6646 26.8122 10.2621 27.2987 9.74686 27.64C9.23161 27.9814 8.62671 28.1623 8.00864 28.1598C7.17985 28.1566 6.38629 27.8242 5.80255 27.2359C5.21881 26.6475 4.8927 25.8514 4.89596 25.0226Z" fill="#101820"/>
</svg>
