<svg width="15" height="15" viewBox="0 0 15 15" fill="none" xmlns="http://www.w3.org/2000/svg">
<path d="M6.5625 11.8031C5.9409 11.8031 5.34476 11.5562 4.90522 11.1167C4.46568 10.6771 4.21875 10.081 4.21875 9.45937V8.60625C4.21876 8.5249 4.23995 8.44495 4.28022 8.37427C4.32049 8.30359 4.37846 8.24461 4.44844 8.20312L6.15 7.18125C6.25575 7.13346 6.37546 7.12659 6.48598 7.16197C6.5965 7.19735 6.68996 7.27247 6.74829 7.3728C6.80661 7.47312 6.82565 7.59151 6.80172 7.70506C6.7778 7.81861 6.7126 7.91924 6.61875 7.9875L5.15625 8.87343V9.45937C5.15625 9.83233 5.30441 10.19 5.56813 10.4537C5.83185 10.7175 6.18954 10.8656 6.5625 10.8656C6.68682 10.8656 6.80605 10.915 6.89396 11.0029C6.98186 11.0908 7.03125 11.2101 7.03125 11.3344C7.03125 11.4587 6.98186 11.5779 6.89396 11.6658C6.80605 11.7537 6.68682 11.8031 6.5625 11.8031Z" fill="white"/>
<path d="M3.28125 11.8031H2.8125C2.50471 11.8031 2.19994 11.7425 1.91559 11.6247C1.63123 11.5069 1.37286 11.3343 1.15522 11.1167C0.71568 10.6771 0.46875 10.081 0.46875 9.45937V8.60625C0.468764 8.5249 0.489948 8.44495 0.53022 8.37427C0.570491 8.30359 0.628464 8.24461 0.698438 8.20312L2.4 7.18125C2.50575 7.13346 2.62546 7.12659 2.73598 7.16197C2.8465 7.19735 2.93996 7.27247 2.99829 7.3728C3.05661 7.47312 3.07565 7.59151 3.05173 7.70506C3.0278 7.81861 2.9626 7.91924 2.86875 7.9875L1.40625 8.87343V9.45937C1.40625 9.83233 1.55441 10.19 1.81813 10.4537C2.08185 10.7175 2.43954 10.8656 2.8125 10.8656H3.28125C3.40557 10.8656 3.5248 10.915 3.61271 11.0029C3.70061 11.0908 3.75 11.2101 3.75 11.3344C3.75 11.4587 3.70061 11.5779 3.61271 11.6658C3.5248 11.7537 3.40557 11.8031 3.28125 11.8031Z" fill="white"/>
<path d="M4.6875 7.03125C3.94158 7.03125 3.22621 6.73493 2.69876 6.20749C2.17132 5.68004 1.875 4.96467 1.875 4.21875C1.875 3.47283 2.17132 2.75746 2.69876 2.23001C3.22621 1.70257 3.94158 1.40625 4.6875 1.40625C4.81182 1.40625 4.93105 1.45564 5.01896 1.54354C5.10686 1.63145 5.15625 1.75068 5.15625 1.875C5.15625 1.99932 5.10686 2.11855 5.01896 2.20646C4.93105 2.29436 4.81182 2.34375 4.6875 2.34375C4.19022 2.34375 3.71331 2.54129 3.36167 2.89292C3.01004 3.24456 2.8125 3.72147 2.8125 4.21875C2.8125 4.71603 3.01004 5.19294 3.36167 5.54458C3.71331 5.89621 4.19022 6.09375 4.6875 6.09375C4.81182 6.09375 4.93105 6.14314 5.01896 6.23104C5.10686 6.31895 5.15625 6.43818 5.15625 6.5625C5.15625 6.68682 5.10686 6.80605 5.01896 6.89396C4.93105 6.98186 4.81182 7.03125 4.6875 7.03125Z" fill="white"/>
<path d="M8.4375 7.03125C7.88124 7.03125 7.33747 6.8663 6.87496 6.55726C6.41245 6.24822 6.05196 5.80897 5.83909 5.29505C5.62622 4.78113 5.57052 4.21563 5.67904 3.67006C5.78756 3.12449 6.05543 2.62335 6.44876 2.23001C6.8421 1.83668 7.34324 1.56881 7.88881 1.46029C8.43438 1.35177 8.99988 1.40747 9.5138 1.62034C10.0277 1.83321 10.467 2.1937 10.776 2.65621C11.0851 3.11872 11.25 3.66249 11.25 4.21875C11.25 4.96467 10.9537 5.68004 10.4262 6.20749C9.89879 6.73494 9.18342 7.03125 8.4375 7.03125ZM8.4375 2.34375C8.06666 2.34375 7.70415 2.45372 7.39581 2.65975C7.08746 2.86577 6.84714 3.15861 6.70523 3.50122C6.56331 3.84383 6.52618 4.22083 6.59853 4.58455C6.67088 4.94826 6.84945 5.28235 7.11168 5.54458C7.3739 5.8068 7.70799 5.98538 8.07171 6.05772C8.43542 6.13007 8.81242 6.09294 9.15503 5.95103C9.49764 5.80911 9.79048 5.56879 9.99651 5.26045C10.2025 4.9521 10.3125 4.58959 10.3125 4.21875C10.3125 3.72147 10.115 3.24456 9.76333 2.89293C9.4117 2.5413 8.93478 2.34375 8.4375 2.34375Z" fill="white"/>
<path d="M11.25 13.5938C10.601 13.5938 9.96664 13.4013 9.42704 13.0408C8.88744 12.6802 8.46687 12.1678 8.21852 11.5682C7.97017 10.9686 7.90519 10.3089 8.0318 9.67236C8.15841 9.03586 8.47092 8.4512 8.92981 7.99231C9.3887 7.53342 9.97336 7.22091 10.6099 7.0943C11.2464 6.96769 11.9061 7.03267 12.5057 7.28102C13.1053 7.52937 13.6177 7.94994 13.9783 8.48954C14.3388 9.02913 14.5313 9.66353 14.5313 10.3125C14.5313 11.1827 14.1855 12.0173 13.5702 12.6327C12.9548 13.248 12.1202 13.5938 11.25 13.5938ZM11.25 7.96875C10.7865 7.96875 10.3333 8.10621 9.94788 8.36374C9.56246 8.62128 9.26205 8.98732 9.08466 9.41559C8.90727 9.84385 8.86085 10.3151 8.95129 10.7697C9.04172 11.2244 9.26494 11.642 9.59272 11.9698C9.9205 12.2976 10.3381 12.5208 10.7928 12.6112C11.2474 12.7017 11.7187 12.6552 12.1469 12.4778C12.5752 12.3005 12.9412 12 13.1988 11.6146C13.4563 11.2292 13.5938 10.7761 13.5938 10.3125C13.5938 9.6909 13.3468 9.09476 12.9073 8.65522C12.4677 8.21568 11.8716 7.96875 11.25 7.96875Z" fill="white"/>
<path d="M12.6562 9.84375H9.84375V10.7812H12.6562V9.84375Z" fill="white"/>
<path d="M11.7188 8.90625H10.7812V11.7188H11.7188V8.90625Z" fill="white"/>
</svg>
