<svg width="33" height="33" viewBox="0 0 33 33" fill="none" xmlns="http://www.w3.org/2000/svg">
<g filter="url(#filter0_d)">
<path d="M10.5303 29C8.85721 29 7.18388 28.3932 5.91047 27.1795C3.36313 24.7519 3.36313 20.8021 5.91073 18.375L19.6074 5.32393C20.5032 4.47004 21.6936 4 22.9588 4C24.2241 4 25.4146 4.47004 26.3105 5.32393L26.332 5.34522C27.2158 6.18683 27.7093 7.32109 27.7093 8.527C27.7093 9.73292 27.2158 10.8672 26.3197 11.7208L13.6884 23.7567L13.5186 23.9017C12.4955 24.8639 10.8421 24.8598 9.82482 23.8912L9.80458 23.8719C9.31052 23.4011 9.03785 22.7742 9.03785 22.1075C9.03785 21.4413 9.31078 20.8144 9.80589 20.3426L16.3701 14.0878C16.5755 13.8921 16.9084 13.8921 17.1137 14.0878C17.3191 14.2835 17.3191 14.6007 17.1137 14.7964L10.5495 21.0512C10.2529 21.3341 10.0896 21.7089 10.0896 22.1078C10.0896 22.5064 10.2529 22.8815 10.5495 23.1644L10.5697 23.1839C11.1795 23.7647 12.1744 23.7642 12.7858 23.1824L25.5761 11.0122C26.2734 10.3478 26.6576 9.46508 26.6576 8.527C26.6576 7.58893 26.2734 6.70623 25.5761 6.04201L25.5545 6.02047C24.8696 5.36802 23.9433 5.00221 22.9588 5.00221C21.9744 5.00221 21.048 5.36802 20.351 6.03249L6.65432 19.0838C4.5169 21.1203 4.5169 24.4342 6.65406 26.4709C8.79095 28.5069 12.2688 28.5077 14.4065 26.4709L28.1024 13.4193C28.3078 13.2236 28.6406 13.2236 28.846 13.4193C29.0513 13.615 29.0513 13.9322 28.846 14.1279L15.1501 27.1795C13.8764 28.3932 12.2031 29 10.5303 29Z" fill="black"/>
</g>
<defs>
<filter id="filter0_d" x="0" y="0" width="33" height="33" filterUnits="userSpaceOnUse" color-interpolation-filters="sRGB">
<feFlood flood-opacity="0" result="BackgroundImageFix"/>
<feColorMatrix in="SourceAlpha" type="matrix" values="0 0 0 0 0 0 0 0 0 0 0 0 0 0 0 0 0 0 127 0"/>
<feOffset/>
<feGaussianBlur stdDeviation="2"/>
<feColorMatrix type="matrix" values="0 0 0 0 0 0 0 0 0 0 0 0 0 0 0 0 0 0 0.25 0"/>
<feBlend mode="normal" in2="BackgroundImageFix" result="effect1_dropShadow"/>
<feBlend mode="normal" in="SourceGraphic" in2="effect1_dropShadow" result="shape"/>
</filter>
</defs>
</svg>
