<svg width="17" height="17" viewBox="0 0 17 17" fill="none" xmlns="http://www.w3.org/2000/svg">
<path d="M6.96023 0C10.7977 0 13.9198 3.12215 13.9198 6.95992C13.9198 8.69226 13.2796 10.275 12.2286 11.4944L16.4632 15.729C16.6661 15.9319 16.6661 16.2604 16.4632 16.4633C16.3618 16.5647 16.2293 16.6154 16.0961 16.6154C15.9629 16.6154 15.8304 16.5647 15.729 16.4633L11.4945 12.2287C10.2751 13.2796 8.6924 13.9198 6.96023 13.9198C3.12212 13.9198 -2.67029e-05 10.7977 -2.67029e-05 6.95992C-2.67029e-05 3.12215 3.12212 0 6.96023 0ZM6.96023 12.8814C10.225 12.8814 12.8814 10.2251 12.8814 6.95992C12.8814 3.69479 10.225 1.03846 6.96023 1.03846C3.69476 1.03846 1.03843 3.69479 1.03843 6.95992C1.03843 10.2251 3.69476 12.8814 6.96023 12.8814Z" fill="#1D1D1B"/>
</svg>
