<svg width="32" height="32" viewBox="0 0 32 32" fill="none" xmlns="http://www.w3.org/2000/svg">
<path d="M16 31C13.0333 31 10.1332 30.1203 7.66645 28.4721C5.19971 26.8238 3.27712 24.4812 2.14181 21.7403C1.00649 18.9994 0.709443 15.9834 1.28822 13.0737C1.867 10.1639 3.29561 7.49119 5.3934 5.3934C7.49119 3.29562 10.1639 1.86701 13.0736 1.28823C15.9834 0.709449 18.9994 1.0065 21.7403 2.14181C24.4811 3.27713 26.8238 5.19972 28.472 7.66645C30.1203 10.1332 31 13.0333 31 16C31 19.9783 29.4196 23.7936 26.6066 26.6066C23.7936 29.4197 19.9782 31 16 31ZM16 3.00001C13.4288 3.00001 10.9154 3.76244 8.77759 5.1909C6.63975 6.61936 4.97351 8.64968 3.98957 11.0251C3.00563 13.4006 2.74818 16.0144 3.24979 18.5362C3.7514 21.0579 4.98953 23.3743 6.80761 25.1924C8.62569 27.0105 10.9421 28.2486 13.4638 28.7502C15.9856 29.2518 18.5994 28.9944 20.9749 28.0104C23.3503 27.0265 25.3806 25.3603 26.8091 23.2224C28.2376 21.0846 29 18.5712 29 16C29 12.5522 27.6304 9.24559 25.1924 6.80762C22.7544 4.36965 19.4478 3.00001 16 3.00001Z" fill="#2F2F2F"/>
<path d="M17 14H15V23H17V14Z" fill="#2F2F2F"/>
<path d="M16 12C15.6044 12 15.2178 11.8827 14.8889 11.6629C14.56 11.4432 14.3036 11.1308 14.1522 10.7654C14.0009 10.3999 13.9613 9.99778 14.0384 9.60982C14.1156 9.22186 14.3061 8.86549 14.5858 8.58579C14.8655 8.30608 15.2219 8.1156 15.6098 8.03843C15.9978 7.96126 16.3999 8.00087 16.7654 8.15224C17.1308 8.30362 17.4432 8.55996 17.6629 8.88886C17.8827 9.21776 18 9.60444 18 10C18 10.5304 17.7893 11.0391 17.4142 11.4142C17.0391 11.7893 16.5304 12 16 12Z" fill="#2F2F2F"/>
</svg>
